<svg width="40" height="29" viewBox="0 0 40 29" fill="none" xmlns="http://www.w3.org/2000/svg">
<g id="Icon / web">
<rect id="Rectangle 9" width="40" height="28.5714" fill="#EC407A"/>
<path id="CMS" d="M13.1164 21.12C12.643 21.12 12.2164 21.0467 11.8364 20.9C11.4564 20.7467 11.133 20.5233 10.8664 20.23C10.5997 19.93 10.393 19.56 10.2464 19.12C10.0997 18.6733 10.0264 18.1533 10.0264 17.56C10.0264 16.9733 10.0997 16.4533 10.2464 16C10.393 15.54 10.5997 15.1567 10.8664 14.85C11.133 14.5367 11.4564 14.3 11.8364 14.14C12.2164 13.98 12.643 13.9 13.1164 13.9C13.763 13.9 14.2964 14.0333 14.7164 14.3C15.1364 14.56 15.473 14.9733 15.7264 15.54L14.4164 16.22C14.323 15.9267 14.1764 15.6933 13.9764 15.52C13.783 15.34 13.4964 15.25 13.1164 15.25C12.6697 15.25 12.3097 15.3967 12.0364 15.69C11.7697 15.9767 11.6364 16.3967 11.6364 16.95V18.07C11.6364 18.6233 11.7697 19.0467 12.0364 19.34C12.3097 19.6267 12.6697 19.77 13.1164 19.77C13.4897 19.77 13.7864 19.67 14.0064 19.47C14.233 19.2633 14.3997 19.0167 14.5064 18.73L15.7464 19.45C15.4864 19.9833 15.143 20.3967 14.7164 20.69C14.2964 20.9767 13.763 21.12 13.1164 21.12ZM22.03 16.42H22L21.49 17.44L20.13 19.91L18.8 17.45L18.27 16.35H18.24V21H16.81V14.02H18.42L20.13 17.29H20.15L21.84 14.02H23.46V21H22.03V16.42ZM27.2634 21.12C26.6501 21.12 26.1301 21.0167 25.7034 20.81C25.2767 20.5967 24.9134 20.3233 24.6134 19.99L25.6134 18.98C26.0867 19.5133 26.6701 19.78 27.3634 19.78C27.7367 19.78 28.0134 19.7033 28.1934 19.55C28.3734 19.3967 28.4634 19.1933 28.4634 18.94C28.4634 18.7467 28.4101 18.5867 28.3034 18.46C28.1967 18.3267 27.9801 18.2367 27.6534 18.19L26.9634 18.1C26.2234 18.0067 25.6801 17.7833 25.3334 17.43C24.9934 17.0767 24.8234 16.6067 24.8234 16.02C24.8234 15.7067 24.8834 15.42 25.0034 15.16C25.1234 14.9 25.2934 14.6767 25.5134 14.49C25.7401 14.3033 26.0134 14.16 26.3334 14.06C26.6601 13.9533 27.0301 13.9 27.4434 13.9C27.9701 13.9 28.4334 13.9833 28.8334 14.15C29.2334 14.3167 29.5767 14.56 29.8634 14.88L28.8534 15.9C28.6867 15.7067 28.4834 15.55 28.2434 15.43C28.0101 15.3033 27.7134 15.24 27.3534 15.24C27.0134 15.24 26.7601 15.3 26.5934 15.42C26.4267 15.54 26.3434 15.7067 26.3434 15.92C26.3434 16.16 26.4067 16.3333 26.5334 16.44C26.6667 16.5467 26.8801 16.6233 27.1734 16.67L27.8634 16.78C28.5834 16.8933 29.1167 17.1167 29.4634 17.45C29.8101 17.7767 29.9834 18.2433 29.9834 18.85C29.9834 19.1833 29.9234 19.49 29.8034 19.77C29.6834 20.05 29.5067 20.29 29.2734 20.49C29.0467 20.69 28.7634 20.8467 28.4234 20.96C28.0834 21.0667 27.6967 21.12 27.2634 21.12Z" fill="white"/>
<g id="circles">
<circle id="Ellipse 3" cx="35.3576" cy="3.92861" r="1.07143" fill="white"/>
<circle id="Ellipse 4" cx="31.7858" cy="3.92861" r="1.07143" fill="white"/>
<circle id="Ellipse 5" cx="28.2145" cy="3.92861" r="1.07143" fill="white"/>
</g>
</g>
</svg>
