<svg width="40" height="29" viewBox="0 0 40 29" fill="none" xmlns="http://www.w3.org/2000/svg">
<g id="Icon / web">
<rect id="Rectangle 9" width="40" height="28.5714" fill="#EC407A"/>
<path id="CRM" d="M12.8673 21.12C12.394 21.12 11.9673 21.0467 11.5873 20.9C11.2073 20.7467 10.884 20.5233 10.6173 20.23C10.3507 19.93 10.144 19.56 9.99734 19.12C9.85068 18.6733 9.77734 18.1533 9.77734 17.56C9.77734 16.9733 9.85068 16.4533 9.99734 16C10.144 15.54 10.3507 15.1567 10.6173 14.85C10.884 14.5367 11.2073 14.3 11.5873 14.14C11.9673 13.98 12.394 13.9 12.8673 13.9C13.514 13.9 14.0473 14.0333 14.4673 14.3C14.8873 14.56 15.224 14.9733 15.4773 15.54L14.1673 16.22C14.074 15.9267 13.9273 15.6933 13.7273 15.52C13.534 15.34 13.2473 15.25 12.8673 15.25C12.4207 15.25 12.0607 15.3967 11.7873 15.69C11.5207 15.9767 11.3873 16.3967 11.3873 16.95V18.07C11.3873 18.6233 11.5207 19.0467 11.7873 19.34C12.0607 19.6267 12.4207 19.77 12.8673 19.77C13.2407 19.77 13.5373 19.67 13.7573 19.47C13.984 19.2633 14.1507 19.0167 14.2573 18.73L15.4973 19.45C15.2373 19.9833 14.894 20.3967 14.4673 20.69C14.0473 20.9767 13.514 21.12 12.8673 21.12ZM18.081 21H16.561V14.02H19.871C20.191 14.02 20.481 14.0733 20.741 14.18C21.001 14.2867 21.221 14.44 21.401 14.64C21.5877 14.8333 21.731 15.0667 21.831 15.34C21.931 15.6133 21.981 15.9167 21.981 16.25C21.981 16.7233 21.8743 17.1367 21.661 17.49C21.4543 17.8433 21.1377 18.1 20.711 18.26L22.081 21H20.391L19.171 18.44H18.081V21ZM19.681 17.16C19.9077 17.16 20.0843 17.1033 20.211 16.99C20.3443 16.87 20.411 16.6967 20.411 16.47V16.03C20.411 15.8033 20.3443 15.6333 20.211 15.52C20.0843 15.4 19.9077 15.34 19.681 15.34H18.081V17.16H19.681ZM28.5193 16.42H28.4893L27.9793 17.44L26.6193 19.91L25.2893 17.45L24.7593 16.35H24.7293V21H23.2993V14.02H24.9093L26.6193 17.29H26.6393L28.3293 14.02H29.9493V21H28.5193V16.42Z" fill="white"/>
<g id="circles">
<circle id="Ellipse 3" cx="35.3576" cy="3.92861" r="1.07143" fill="white"/>
<circle id="Ellipse 4" cx="31.7858" cy="3.92861" r="1.07143" fill="white"/>
<circle id="Ellipse 5" cx="28.2145" cy="3.92861" r="1.07143" fill="white"/>
</g>
</g>
</svg>
