<svg width="36" height="38" viewBox="0 0 36 38" fill="none" xmlns="http://www.w3.org/2000/svg">
<circle cx="18" cy="18" r="18" fill="#EC407A"/>
<path d="M18.08 24.24C17.2533 24.24 16.5133 24.1133 15.86 23.86C15.2067 23.5933 14.6533 23.22 14.2 22.74C13.76 22.2467 13.42 21.66 13.18 20.98C12.9533 20.3 12.84 19.54 12.84 18.7C12.84 17.7267 12.9867 16.8067 13.28 15.94C13.5867 15.06 13.9733 14.2533 14.44 13.52C14.92 12.7733 15.4533 12.1067 16.04 11.52C16.64 10.9333 17.24 10.44 17.84 10.04H21.98C21.1267 10.6533 20.36 11.24 19.68 11.8C19 12.3467 18.4067 12.9 17.9 13.46C17.4067 14.02 16.9933 14.5933 16.66 15.18C16.34 15.7533 16.1133 16.3733 15.98 17.04L16.16 17.1C16.28 16.8333 16.42 16.5733 16.58 16.32C16.7533 16.0667 16.96 15.8467 17.2 15.66C17.4533 15.46 17.7467 15.3 18.08 15.18C18.4133 15.06 18.8 15 19.24 15C19.8133 15 20.3467 15.1067 20.84 15.32C21.3467 15.52 21.78 15.8067 22.14 16.18C22.5133 16.5533 22.8 17.0133 23 17.56C23.2133 18.0933 23.32 18.6867 23.32 19.34C23.32 20.06 23.1933 20.72 22.94 21.32C22.7 21.92 22.3467 22.44 21.88 22.88C21.4267 23.3067 20.88 23.64 20.24 23.88C19.6 24.12 18.88 24.24 18.08 24.24ZM18.08 21.9C18.7467 21.9 19.2667 21.72 19.64 21.36C20.0133 20.9867 20.2 20.46 20.2 19.78V19.42C20.2 18.74 20.0133 18.22 19.64 17.86C19.2667 17.4867 18.7467 17.3 18.08 17.3C17.4133 17.3 16.8933 17.4867 16.52 17.86C16.1467 18.22 15.96 18.74 15.96 19.42V19.78C15.96 20.46 16.1467 20.9867 16.52 21.36C16.8933 21.72 17.4133 21.9 18.08 21.9Z" fill="white"/>
</svg>
