<svg width="54" height="112" viewBox="0 0 54 112" fill="none" xmlns="http://www.w3.org/2000/svg">
<path d="M45.7315 91.6951L52.9699 79.2642C52.6712 79.0722 43.3422 73.0488 43.3422 55.9913C43.3422 38.9337 52.6888 32.9104 53.0753 32.6659L45.7315 20.3049C45.0463 20.7065 28.8831 30.2915 28.8831 56.0087C28.8831 81.7259 45.0463 91.2935 45.7315 91.6951Z" fill="#EC407A"/>
<path d="M25.9491 112L33.1874 99.5691C32.4847 99.1501 14.4415 87.9065 14.4415 55.9913C14.4415 24.0761 32.4847 12.8499 33.2577 12.3959L25.9491 0C24.895 0.611068 0 15.4164 0 56.0087C0 96.5836 24.895 111.389 25.9491 112Z" fill="#EC407A"/>
</svg>
