<svg width="24" height="24" viewBox="0 0 24 24" fill="none" xmlns="http://www.w3.org/2000/svg">
<g id="Group 32">
<circle id="Ellipse 32" cx="12" cy="12" r="12" fill="white"/>
<g id="Group 33">
<path id="Vector" d="M8.09156 8.39448H8.07404C7.8833 8.40688 7.69225 8.37676 7.5128 8.30599C7.33334 8.23521 7.16935 8.12531 7.03107 7.98315C6.89278 7.84098 6.78316 7.66961 6.70906 7.47972C6.63496 7.28984 6.59797 7.08552 6.60039 6.87953C6.60282 6.67354 6.64461 6.4703 6.72316 6.2825C6.8017 6.09471 6.91532 5.92639 7.05691 5.78805C7.1985 5.64972 7.36503 5.54434 7.54609 5.4785C7.72715 5.41266 7.91885 5.38778 8.10924 5.40539C8.30056 5.39045 8.49268 5.41835 8.67352 5.48733C8.85436 5.55632 9.02001 5.66489 9.16005 5.80623C9.30008 5.94756 9.41148 6.11861 9.48724 6.30861C9.563 6.4986 9.60148 6.70344 9.60025 6.91025C9.59903 7.11705 9.55813 7.32135 9.48013 7.51029C9.40214 7.69923 9.28872 7.86873 9.14702 8.00813C9.00533 8.14753 8.83841 8.25382 8.65677 8.32031C8.47513 8.3868 8.28269 8.41205 8.09156 8.39448Z" fill="#1E1E1E"/>
<path id="Vector_2" d="M9.59995 10.1997H6.59995V17.3997H9.59995V10.1997Z" fill="#1E1E1E"/>
<path id="Vector_3" d="M15.9001 10.1997C15.4957 10.2008 15.0967 10.2933 14.7331 10.4703C14.3694 10.6473 14.0505 10.9042 13.8001 11.2218V10.1997H11.4001V17.3997H13.8001V14.0997C13.8001 13.7814 13.9265 13.4762 14.1516 13.2512C14.3766 13.0261 14.6818 12.8997 15.0001 12.8997C15.3183 12.8997 15.6236 13.0261 15.8486 13.2512C16.0737 13.4762 16.2001 13.7814 16.2001 14.0997V17.3997H18.6001V12.8997C18.6001 12.5451 18.5302 12.194 18.3946 11.8665C18.2589 11.5389 18.06 11.2412 17.8093 10.9905C17.5586 10.7398 17.2609 10.5409 16.9333 10.4052C16.6058 10.2695 16.2547 10.1997 15.9001 10.1997Z" fill="#1E1E1E"/>
</g>
</g>
</svg>
