<svg width="37" height="36" viewBox="0 0 37 36" fill="none" xmlns="http://www.w3.org/2000/svg">
<g id="Group 32">
<circle id="Ellipse 32" cx="18.5996" cy="18" r="18" fill="#EC407A"/>
<g id="Group 33">
<path id="Vector" d="M12.7369 12.5918H12.7106C12.4245 12.6104 12.1379 12.5653 11.8688 12.4591C11.5996 12.3529 11.3536 12.1881 11.1462 11.9748C10.9387 11.7616 10.7743 11.5045 10.6632 11.2197C10.552 10.9349 10.4965 10.6284 10.5002 10.3194C10.5038 10.0104 10.5665 9.70557 10.6843 9.42388C10.8021 9.14218 10.9726 8.8897 11.1849 8.6822C11.3973 8.4747 11.6471 8.31663 11.9187 8.21788C12.1903 8.11912 12.4779 8.08178 12.7634 8.10821C13.0504 8.0858 13.3386 8.12765 13.6099 8.23112C13.8811 8.3346 14.1296 8.49746 14.3396 8.70946C14.5497 8.92147 14.7168 9.17803 14.8304 9.46303C14.9441 9.74803 15.0018 10.0553 15 10.3655C14.9981 10.6757 14.9368 10.9821 14.8198 11.2656C14.7028 11.549 14.5327 11.8032 14.3201 12.0123C14.1076 12.2214 13.8572 12.3808 13.5847 12.4806C13.3123 12.5803 13.0236 12.6182 12.7369 12.5918Z" fill="white"/>
<path id="Vector_2" d="M15 15.3H10.5V26.1H15V15.3Z" fill="white"/>
<path id="Vector_3" d="M24.4502 15.3C23.8436 15.3017 23.2451 15.4405 22.6997 15.7059C22.1542 15.9714 21.6758 16.3567 21.3002 16.8331V15.3H17.7002V26.1H21.3002V21.15C21.3002 20.6727 21.4898 20.2148 21.8274 19.8773C22.165 19.5397 22.6228 19.35 23.1002 19.35C23.5776 19.35 24.0354 19.5397 24.373 19.8773C24.7106 20.2148 24.9002 20.6727 24.9002 21.15V26.1H28.5002V19.35C28.5002 18.8182 28.3954 18.2915 28.1919 17.8002C27.9884 17.3088 27.6901 16.8623 27.314 16.4863C26.9379 16.1102 26.4914 15.8119 26.0001 15.6083C25.5087 15.4048 24.982 15.3 24.4502 15.3Z" fill="white"/>
</g>
</g>
</svg>
