<svg width="24" height="24" viewBox="0 0 24 24" fill="none" xmlns="http://www.w3.org/2000/svg">
<circle cx="12" cy="12" r="12" fill="#1E1E1E"/>
<path d="M8.09381 8.39473H8.0763C7.88556 8.40713 7.6945 8.377 7.51505 8.30623C7.3356 8.23546 7.17161 8.12556 7.03332 7.98339C6.89504 7.84123 6.78542 7.66985 6.71132 7.47996C6.63722 7.29008 6.60023 7.08576 6.60265 6.87977C6.60508 6.67378 6.64687 6.47054 6.72542 6.28275C6.80396 6.09495 6.91758 5.92663 7.05917 5.7883C7.20076 5.64996 7.36729 5.54459 7.54835 5.47875C7.72941 5.41291 7.92111 5.38802 8.11149 5.40564C8.30282 5.3907 8.49494 5.4186 8.67578 5.48758C8.85662 5.55656 9.02227 5.66513 9.1623 5.80647C9.30234 5.94781 9.41374 6.11885 9.4895 6.30885C9.56526 6.49885 9.60373 6.70369 9.60251 6.91049C9.60129 7.1173 9.56039 7.32159 9.48239 7.51053C9.40439 7.69947 9.29098 7.86897 9.14928 8.00837C9.00758 8.14777 8.84067 8.25406 8.65903 8.32055C8.47738 8.38704 8.28495 8.4123 8.09381 8.39473Z" fill="white"/>
<path d="M9.60254 10.2004H6.60254V17.4004H9.60254V10.2004Z" fill="white"/>
<path d="M15.9023 10.2004C15.4979 10.2015 15.099 10.294 14.7353 10.471C14.3717 10.648 14.0527 10.9049 13.8023 11.2225V10.2004H11.4023V17.4004H13.8023V14.1004C13.8023 13.7822 13.9288 13.477 14.1538 13.2519C14.3789 13.0269 14.6841 12.9004 15.0023 12.9004C15.3206 12.9004 15.6258 13.0269 15.8509 13.2519C16.0759 13.477 16.2023 13.7822 16.2023 14.1004V17.4004H18.6023V12.9004C18.6023 12.5459 18.5325 12.1948 18.3968 11.8672C18.2611 11.5396 18.0622 11.242 17.8115 10.9913C17.5608 10.7405 17.2632 10.5417 16.9356 10.406C16.608 10.2703 16.2569 10.2004 15.9023 10.2004Z" fill="white"/>
</svg>
