<svg width="150" height="23" viewBox="0 0 150 23" fill="none" xmlns="http://www.w3.org/2000/svg">
<g id="Group">
<g id="Group_2">
<g id="Group_3">
<path id="Vector" d="M14.4308 11.2023C14.9095 9.99527 15.3575 8.85337 14.5539 6.93649C14.5334 6.89191 14.5265 6.84391 14.5197 6.7959C12.8475 7.12509 11.5139 9.12427 11.5139 11.4561C11.5139 13.7399 12.7962 15.7082 14.4205 16.0922C13.3707 13.8873 13.9315 12.4642 14.4308 11.2023Z" fill="white"/>
<path id="Vector_2" d="M15.973 8.9082C15.973 9.95408 15.6448 10.7874 15.337 11.5589C14.8309 12.8448 14.3898 13.9524 15.4362 15.9276C15.4669 15.9859 15.484 16.0476 15.4909 16.1094C17.1631 15.7802 18.4933 13.781 18.4933 11.4526C18.4933 9.15167 17.1938 7.1765 15.5558 6.80615C15.8568 7.60171 15.973 8.29096 15.973 8.9082Z" fill="white"/>
</g>
</g>
<g id="Group_4">
<path id="Vector_3" d="M40.6217 16.7984C39.671 16.7984 38.84 16.6509 38.1322 16.356C37.4209 16.0611 36.8635 15.6119 36.46 15.0084C36.0565 14.4083 35.8308 13.6436 35.7932 12.7212C35.7829 12.3097 35.7761 11.8708 35.7761 11.3975C35.7761 10.9277 35.7829 10.4751 35.7932 10.043C35.8342 9.14117 36.0599 8.38677 36.4737 7.77981C36.8874 7.17286 37.4551 6.72022 38.1698 6.41845C38.8845 6.11669 39.7018 5.96924 40.6217 5.96924C41.2816 5.96924 41.9006 6.04468 42.4751 6.20242C43.0496 6.35673 43.5625 6.59334 44.0139 6.90882C44.4653 7.2243 44.8175 7.61522 45.0808 8.08158C45.3407 8.54794 45.4741 9.09317 45.4844 9.71384C45.4844 9.80642 45.4502 9.87844 45.3852 9.94016C45.3202 10.0019 45.2416 10.0293 45.1527 10.0293H42.6187C42.4683 10.0293 42.3588 9.99846 42.287 9.94016C42.2186 9.87844 42.1571 9.77556 42.1092 9.62468C41.9792 9.19261 41.7877 8.90114 41.5381 8.75368C41.2885 8.6028 40.9841 8.52736 40.6251 8.52736C40.1839 8.52736 39.8351 8.64395 39.5753 8.88056C39.3154 9.11717 39.1752 9.52867 39.1546 10.1219C39.1239 10.9449 39.1239 11.785 39.1546 12.6492C39.1752 13.2424 39.3154 13.6539 39.5753 13.8905C39.8351 14.1271 40.1839 14.2437 40.6251 14.2437C40.9841 14.2437 41.2919 14.1648 41.5484 14.0037C41.8048 13.8425 41.9895 13.5579 42.1126 13.1464C42.1536 12.9852 42.2084 12.8789 42.2836 12.8241C42.3588 12.7692 42.4717 12.7418 42.6221 12.7418H45.1561C45.2484 12.7418 45.3236 12.7726 45.3886 12.8343C45.4536 12.8926 45.4878 12.9681 45.4878 13.0607C45.4775 13.6848 45.3407 14.2266 45.0843 14.6929C44.8244 15.1593 44.4687 15.5502 44.0173 15.8657C43.5694 16.1812 43.0564 16.4178 42.4785 16.5721C41.9006 16.7264 41.2816 16.7984 40.6217 16.7984Z" fill="white"/>
<path id="Vector_4" d="M51.4448 16.7984C50.4839 16.7984 49.6529 16.6475 48.9485 16.3492C48.244 16.0474 47.6866 15.5948 47.2831 14.9878C46.8796 14.3809 46.6607 13.6265 46.6299 12.7246C46.6197 12.3028 46.6163 11.8707 46.6163 11.425C46.6163 10.9792 46.6197 10.5368 46.6299 10.0945C46.6607 9.20289 46.8796 8.44848 47.2831 7.8381C47.6866 7.22771 48.244 6.76135 48.9553 6.44587C49.6666 6.1304 50.4941 5.97266 51.4448 5.97266C52.3852 5.97266 53.2093 6.1304 53.9206 6.44587C54.6319 6.76135 55.1893 7.22428 55.5996 7.8381C56.01 8.45191 56.2254 9.20289 56.2425 10.0945C56.263 10.5368 56.2733 10.9792 56.2733 11.425C56.2733 11.8707 56.263 12.3062 56.2425 12.7246C56.2117 13.6265 55.9963 14.3809 55.5894 14.9878C55.1824 15.5948 54.6284 16.0474 53.924 16.3492C53.223 16.6475 52.3954 16.7984 51.4448 16.7984ZM51.4448 14.2403C51.8654 14.2403 52.2108 14.1134 52.4809 13.8562C52.7511 13.599 52.8913 13.191 52.9015 12.632C52.9221 12.1999 52.9323 11.7816 52.9323 11.3769C52.9323 10.9689 52.9221 10.5574 52.9015 10.1356C52.8913 9.76526 52.8229 9.46007 52.6998 9.22003C52.5733 8.97999 52.4057 8.80168 52.1903 8.69195C51.9748 8.58222 51.7286 8.52735 51.4482 8.52735C51.1678 8.52735 50.9182 8.58222 50.6959 8.69195C50.4736 8.80168 50.3026 8.97657 50.1795 9.22003C50.053 9.46007 49.988 9.76526 49.9778 10.1356C49.9675 10.5574 49.9641 10.9689 49.9641 11.3769C49.9641 11.7816 49.9675 12.1999 49.9778 12.632C49.9983 13.1944 50.1385 13.6024 50.4052 13.8562C50.6685 14.1134 51.0173 14.2403 51.4448 14.2403Z" fill="white"/>
<path id="Vector_5" d="M58.0925 16.6475C57.9934 16.6475 57.901 16.6098 57.8224 16.5344C57.7437 16.4589 57.7027 16.3663 57.7027 16.2566V6.50762C57.7027 6.39789 57.7437 6.3053 57.8224 6.22986C57.901 6.15442 57.9934 6.1167 58.0925 6.1167H65.3216C65.431 6.1167 65.5268 6.15442 65.6054 6.22986C65.6875 6.3053 65.7251 6.39789 65.7251 6.50762V8.41764C65.7251 8.51708 65.6841 8.60967 65.6054 8.68854C65.5268 8.77084 65.431 8.80856 65.3216 8.80856H60.8693V10.4614H65.0241C65.1335 10.4614 65.2293 10.4991 65.3114 10.5746C65.39 10.65 65.431 10.7426 65.431 10.8523V12.7486C65.431 12.8583 65.39 12.9509 65.3114 13.0264C65.2293 13.1018 65.137 13.1395 65.0241 13.1395H60.8693V16.2532C60.8693 16.3629 60.8316 16.4555 60.7564 16.5309C60.6812 16.6064 60.5889 16.6441 60.4794 16.6441H58.0925V16.6475Z" fill="white"/>
<path id="Vector_6" d="M67.4965 16.6475C67.3973 16.6475 67.305 16.6098 67.2263 16.5344C67.1477 16.4589 67.1066 16.3663 67.1066 16.2566V6.50762C67.1066 6.39789 67.1477 6.3053 67.2263 6.22986C67.305 6.15442 67.3973 6.1167 67.4965 6.1167H74.7255C74.835 6.1167 74.9307 6.15442 75.0094 6.22986C75.0914 6.3053 75.1291 6.39789 75.1291 6.50762V8.41764C75.1291 8.51708 75.088 8.60967 75.0094 8.68854C74.9307 8.77084 74.835 8.80856 74.7255 8.80856H70.2732V10.4614H74.428C74.5375 10.4614 74.6332 10.4991 74.7153 10.5746C74.7939 10.65 74.835 10.7426 74.835 10.8523V12.7486C74.835 12.8583 74.7939 12.9509 74.7153 13.0264C74.6332 13.1018 74.5409 13.1395 74.428 13.1395H70.2732V16.2532C70.2732 16.3629 70.2356 16.4555 70.1603 16.5309C70.0851 16.6064 69.9928 16.6441 69.8834 16.6441H67.4965V16.6475Z" fill="white"/>
<path id="Vector_7" d="M76.9005 16.6475C76.8013 16.6475 76.709 16.6098 76.6303 16.5344C76.5517 16.4589 76.5106 16.3663 76.5106 16.2566V6.50762C76.5106 6.39789 76.5517 6.3053 76.6303 6.22986C76.709 6.15442 76.8013 6.1167 76.9005 6.1167H84.2492C84.3587 6.1167 84.4544 6.15442 84.5331 6.22986C84.6151 6.3053 84.6527 6.39789 84.6527 6.50762V8.2839C84.6527 8.38335 84.6117 8.4725 84.5331 8.5548C84.4544 8.63367 84.3587 8.67482 84.2492 8.67482H79.6156V10.1631H83.9209C84.0304 10.1631 84.1261 10.2008 84.2048 10.2762C84.2834 10.3517 84.3245 10.4442 84.3245 10.554V12.1794C84.3245 12.2891 84.2834 12.3817 84.2048 12.4571C84.1227 12.5326 84.0304 12.5703 83.9209 12.5703H79.6156V14.0894H84.3689C84.4783 14.0894 84.5741 14.1306 84.6562 14.2094C84.7348 14.2917 84.7758 14.3843 84.7758 14.494V16.2532C84.7758 16.3629 84.7348 16.4555 84.6562 16.5309C84.5741 16.6064 84.4818 16.6441 84.3689 16.6441H76.9005V16.6475Z" fill="white"/>
<path id="Vector_8" d="M86.5369 16.6475C86.4378 16.6475 86.3454 16.6098 86.2668 16.5344C86.1881 16.4589 86.1471 16.3663 86.1471 16.2566V6.50762C86.1471 6.39789 86.1881 6.3053 86.2668 6.22986C86.3454 6.15442 86.4378 6.1167 86.5369 6.1167H93.8857C93.9951 6.1167 94.0909 6.15442 94.1695 6.22986C94.2516 6.3053 94.2892 6.39789 94.2892 6.50762V8.2839C94.2892 8.38335 94.2482 8.4725 94.1695 8.5548C94.0909 8.63367 93.9951 8.67482 93.8857 8.67482H89.2521V10.1631H93.5574C93.6668 10.1631 93.7626 10.2008 93.8412 10.2762C93.9199 10.3517 93.9609 10.4442 93.9609 10.554V12.1794C93.9609 12.2891 93.9199 12.3817 93.8412 12.4571C93.7592 12.5326 93.6668 12.5703 93.5574 12.5703H89.2521V14.0894H94.0054C94.1148 14.0894 94.2105 14.1306 94.2926 14.2094C94.3713 14.2917 94.4123 14.3843 94.4123 14.494V16.2532C94.4123 16.3629 94.3713 16.4555 94.2926 16.5309C94.2105 16.6064 94.1182 16.6441 94.0054 16.6441H86.5369V16.6475Z" fill="white"/>
<path id="Vector_9" d="M103.457 16.7984C102.507 16.7984 101.679 16.6509 100.968 16.356C100.256 16.0611 99.6991 15.6119 99.2956 15.0084C98.892 14.4083 98.6698 13.6436 98.6287 12.7212C98.6185 12.3097 98.6151 11.8708 98.6151 11.3975C98.6151 10.9277 98.6185 10.4751 98.6287 10.043C98.6698 9.14117 98.8955 8.38677 99.3127 7.77981C99.7264 7.17286 100.291 6.72022 101.009 6.41845C101.723 6.11669 102.541 5.96924 103.461 5.96924C104.121 5.96924 104.74 6.04468 105.314 6.20242C105.889 6.35673 106.402 6.59334 106.853 6.90882C107.301 7.2243 107.657 7.61522 107.916 8.08158C108.176 8.54794 108.31 9.09317 108.32 9.71384C108.32 9.80642 108.289 9.87844 108.224 9.94016C108.159 10.0019 108.081 10.0293 107.992 10.0293H105.458C105.307 10.0293 105.198 9.99846 105.129 9.94016C105.058 9.87844 104.999 9.77556 104.948 9.62468C104.818 9.19261 104.627 8.90114 104.377 8.75368C104.127 8.6028 103.823 8.52736 103.464 8.52736C103.023 8.52736 102.674 8.64395 102.414 8.88056C102.154 9.11717 102.014 9.52867 101.994 10.1219C101.963 10.9449 101.963 11.785 101.994 12.6492C102.014 13.2424 102.154 13.6539 102.414 13.8905C102.674 14.1271 103.023 14.2437 103.464 14.2437C103.823 14.2437 104.131 14.1648 104.387 14.0037C104.64 13.8425 104.828 13.5579 104.948 13.1464C104.989 12.9852 105.047 12.8789 105.119 12.8241C105.194 12.7692 105.307 12.7418 105.458 12.7418H107.992C108.081 12.7418 108.159 12.7726 108.224 12.8343C108.289 12.8926 108.32 12.9681 108.32 13.0607C108.31 13.6848 108.176 14.2266 107.916 14.6929C107.657 15.1593 107.301 15.5502 106.853 15.8657C106.402 16.1812 105.889 16.4178 105.314 16.5721C104.736 16.7195 104.117 16.7984 103.457 16.7984Z" fill="white"/>
<path id="Vector_10" d="M109.951 16.6475C109.852 16.6475 109.76 16.6098 109.681 16.5344C109.599 16.4589 109.561 16.3663 109.561 16.2566V6.50762C109.561 6.39789 109.602 6.3053 109.681 6.22986C109.76 6.15442 109.852 6.1167 109.951 6.1167H112.441C112.55 6.1167 112.646 6.15442 112.728 6.22986C112.806 6.3053 112.847 6.39789 112.847 6.50762V13.9694H117.184C117.293 13.9694 117.389 14.0071 117.467 14.0825C117.546 14.158 117.587 14.2506 117.587 14.3603V16.2566C117.587 16.3663 117.546 16.4589 117.467 16.5344C117.385 16.6098 117.293 16.6475 117.184 16.6475H109.951Z" fill="white"/>
<path id="Vector_11" d="M123.076 16.7984C122.115 16.7984 121.284 16.6475 120.579 16.3492C119.875 16.0474 119.317 15.5948 118.914 14.9878C118.51 14.3809 118.292 13.6265 118.261 12.7246C118.25 12.3028 118.247 11.8707 118.247 11.425C118.247 10.9792 118.25 10.5368 118.261 10.0945C118.292 9.20289 118.51 8.44848 118.914 7.8381C119.317 7.22771 119.875 6.76135 120.586 6.44587C121.297 6.1304 122.125 5.97266 123.076 5.97266C124.016 5.97266 124.84 6.1304 125.551 6.44587C126.263 6.76135 126.82 7.22428 127.23 7.8381C127.641 8.45191 127.856 9.20289 127.873 10.0945C127.894 10.5368 127.904 10.9792 127.904 11.425C127.904 11.8707 127.894 12.3062 127.873 12.7246C127.843 13.6265 127.627 14.3809 127.22 14.9878C126.813 15.5948 126.259 16.0474 125.555 16.3492C124.854 16.6475 124.026 16.7984 123.076 16.7984ZM123.076 14.2403C123.496 14.2403 123.842 14.1134 124.112 13.8562C124.382 13.599 124.522 13.191 124.532 12.632C124.553 12.1999 124.563 11.7816 124.563 11.3769C124.563 10.9689 124.553 10.5574 124.532 10.1356C124.522 9.76526 124.454 9.46007 124.331 9.22003C124.204 8.97999 124.036 8.80168 123.821 8.69195C123.606 8.58222 123.359 8.52735 123.079 8.52735C122.799 8.52735 122.549 8.58222 122.327 8.69195C122.108 8.80168 121.933 8.97657 121.81 9.22003C121.684 9.46007 121.619 9.76526 121.609 10.1356C121.598 10.5574 121.595 10.9689 121.595 11.3769C121.595 11.7816 121.598 12.1999 121.609 12.632C121.629 13.1944 121.769 13.6024 122.036 13.8562C122.299 14.1134 122.645 14.2403 123.076 14.2403Z" fill="white"/>
<path id="Vector_12" d="M133.94 16.7984C133.01 16.7984 132.192 16.6544 131.488 16.3629C130.783 16.0714 130.233 15.6188 129.836 15.0016C129.443 14.3843 129.245 13.6059 129.245 12.6629V6.50762C129.245 6.39789 129.286 6.3053 129.364 6.22986C129.446 6.15442 129.535 6.1167 129.634 6.1167H132.079C132.189 6.1167 132.281 6.15442 132.356 6.22986C132.432 6.3053 132.469 6.39789 132.469 6.50762V12.6149C132.469 13.1258 132.592 13.5133 132.845 13.7739C133.095 14.0345 133.458 14.1648 133.926 14.1648C134.395 14.1648 134.754 14.0345 135 13.7739C135.243 13.5133 135.366 13.1258 135.366 12.6149V6.50762C135.366 6.39789 135.407 6.3053 135.485 6.22986C135.564 6.15442 135.66 6.1167 135.769 6.1167H138.201C138.31 6.1167 138.402 6.15442 138.478 6.22986C138.553 6.3053 138.59 6.39789 138.59 6.50762V12.6595C138.59 13.6025 138.395 14.3809 138.006 14.9981C137.616 15.6154 137.069 16.068 136.371 16.3595C135.67 16.651 134.86 16.7984 133.94 16.7984Z" fill="white"/>
<path id="Vector_13" d="M140.584 16.6475C140.485 16.6475 140.393 16.6098 140.314 16.5344C140.235 16.4589 140.194 16.3663 140.194 16.2566V6.50762C140.194 6.39789 140.235 6.3053 140.314 6.22986C140.393 6.15442 140.485 6.1167 140.584 6.1167H144.694C145.666 6.1167 146.503 6.27444 147.215 6.58992C147.926 6.9054 148.483 7.36833 148.894 7.98214C149.304 8.59252 149.523 9.34693 149.554 10.2385C149.574 10.6706 149.584 11.0512 149.584 11.3804C149.584 11.7096 149.574 12.0868 149.554 12.5086C149.513 13.4516 149.301 14.2266 148.914 14.8404C148.531 15.4542 147.988 15.9068 147.287 16.2017C146.585 16.4966 145.748 16.6441 144.766 16.6441H140.584V16.6475ZM143.419 14.0894H144.694C145.026 14.0894 145.303 14.0345 145.536 13.9248C145.765 13.8151 145.946 13.6402 146.076 13.4036C146.206 13.167 146.274 12.8652 146.285 12.4949C146.295 12.2034 146.302 11.9428 146.308 11.713C146.312 11.4833 146.312 11.2535 146.308 11.0203C146.302 10.7906 146.295 10.5334 146.285 10.2522C146.264 9.70013 146.107 9.29892 145.813 9.0486C145.519 8.79827 145.118 8.67139 144.619 8.67139H143.419V14.0894Z" fill="white"/>
</g>
<g id="Group_5">
<g id="Group_6">
<path id="Vector_14" d="M21.1127 18.4035L19.7039 15.962C19.762 15.9243 21.5778 14.7412 21.5778 11.391C21.5778 8.04071 19.7586 6.85766 19.6833 6.80965L21.1127 4.38184C21.2461 4.46071 24.3922 6.34329 24.3922 11.3944C24.3922 16.4455 21.2461 18.3246 21.1127 18.4035Z" fill="white"/>
<path id="Vector_15" d="M24.9633 22.3914L23.5544 19.9498C23.6912 19.8675 27.2031 17.6592 27.2031 11.3907C27.2031 5.12231 23.6878 2.91739 23.5407 2.82823L24.9633 0.393555C25.1685 0.513574 30.0141 3.42147 30.0141 11.3942C30.0141 19.3669 25.1685 22.2713 24.9633 22.3914Z" fill="white"/>
</g>
<g id="Group_7">
<path id="Vector_16" d="M8.90124 18.4035L10.3101 15.962C10.252 15.9243 8.43618 14.7412 8.43618 11.391C8.43618 8.04071 10.2554 6.85766 10.3306 6.80965L8.90124 4.38184C8.76788 4.46071 5.62183 6.34329 5.62183 11.3944C5.62183 16.4455 8.76788 18.3246 8.90124 18.4035Z" fill="white"/>
<path id="Vector_17" d="M5.05078 22.3914L6.45966 19.9498C6.32288 19.8675 2.81093 17.6592 2.81093 11.3907C2.81093 5.12231 6.32288 2.91739 6.47334 2.82823L5.05078 0.393555C4.8456 0.513574 0 3.42147 0 11.3942C0 19.3634 4.8456 22.2713 5.05078 22.3914Z" fill="white"/>
</g>
</g>
</g>
</svg>
