<svg width="54" height="112" viewBox="0 0 54 112" fill="none" xmlns="http://www.w3.org/2000/svg">
<path d="M8.04178 91.6951L0.848647 79.2642C1.14545 79.0721 10.4162 73.0488 10.4162 55.9912C10.4162 38.9337 1.128 32.9103 0.743896 32.6659L8.04178 20.3049C8.72269 20.7064 24.785 30.2915 24.785 56.0087C24.785 81.7259 8.72269 91.2935 8.04178 91.6951Z" fill="#EC407A"/>
<path d="M27.7007 112L20.5075 99.5691C21.2059 99.1501 39.1364 87.9065 39.1364 55.9913C39.1364 24.0761 21.1884 12.8499 20.4377 12.3959L27.7007 0C28.7482 0.611068 53.4877 15.4164 53.4877 56.0087C53.4877 96.6011 28.7482 111.389 27.7007 112Z" fill="#EC407A"/>
</svg>
