<svg width="40" height="29" viewBox="0 0 40 29" fill="none" xmlns="http://www.w3.org/2000/svg">
<g id="Icon / support ticketing">
<path id="Subtract" fill-rule="evenodd" clip-rule="evenodd" d="M0 0H40V9C37.2386 9 35 11.2386 35 14C35 16.7614 37.2386 19 40 19V28.5714H0V19C2.76142 19 5 16.7614 5 14C5 11.2386 2.76142 9 0 9V0Z" fill="#EC407A"/>
<g id="Mask Group">
<mask id="mask0_406:513" style="mask-type:alpha" maskUnits="userSpaceOnUse" x="0" y="0" width="40" height="29">
<path id="Subtract_2" fill-rule="evenodd" clip-rule="evenodd" d="M0 0H40V9C37.2386 9 35 11.2386 35 14C35 16.7614 37.2386 19 40 19V28.5714H0V19C2.76142 19 5 16.7614 5 14C5 11.2386 2.76142 9 0 9V0Z" fill="#EC407A"/>
</mask>
<g mask="url(#mask0_406:513)">
<path id="Vector 8" d="M12.5 0V28.5" stroke="white" stroke-width="2" stroke-linecap="round" stroke-dasharray="2 5"/>
</g>
</g>
</g>
</svg>
