<svg width="20" height="21" viewBox="0 0 20 21" fill="none" xmlns="http://www.w3.org/2000/svg">
<g id="Icon/Send">
<path id="Send" fill-rule="evenodd" clip-rule="evenodd" d="M18.9084 2.4563C18.8282 2.39026 18.7142 2.37494 18.6176 2.41706L1.15569 10.0406C1.06168 10.0817 1.00115 10.1698 1.00002 10.2672C0.998886 10.3646 1.05743 10.4539 1.15053 10.4969L4.6 11.9597C4.69062 12.0015 11.8 8.48108 11.8 8.48108L7.43749 13.0733C7.34922 13.1663 7.3 13.2895 7.3 13.4177V16.8239C7.3 17.2716 7.84325 17.4937 8.15685 17.1741L10.441 14.8467L14.0421 16.5594C14.1125 16.591 14.194 16.5923 14.2655 16.5631C14.337 16.5338 14.3915 16.4768 14.4148 16.407L18.9876 2.72211C19.0196 2.62655 18.9884 2.52233 18.9084 2.4563Z" fill="#1E1E1E"/>
</g>
</svg>
