<svg width="24" height="24" viewBox="0 0 24 24" fill="none" xmlns="http://www.w3.org/2000/svg">
<circle cx="12" cy="12" r="12" fill="#1E1E1E"/>
<path d="M17.6343 8.99229C17.6411 9.11564 17.6411 9.239 17.6411 9.35552C17.6394 10.1144 17.5286 10.8691 17.3122 11.5964C16.8561 13.2726 15.8546 14.7492 14.4659 15.7929C13.0773 16.8365 11.3805 17.3879 9.64357 17.3599C8.11455 17.3616 6.61762 16.9213 5.33301 16.0921C5.55581 16.1196 5.7801 16.1334 6.0046 16.1332C7.26983 16.1344 8.49861 15.7095 9.49286 14.927C8.90725 14.916 8.33965 14.7226 7.86917 14.3738C7.39868 14.0249 7.04875 13.538 6.86812 12.9808C7.04248 13.0107 7.21893 13.0267 7.39582 13.0288C7.6484 13.0297 7.89985 12.9951 8.14278 12.926C7.54135 12.8069 6.99566 12.4936 6.58956 12.0343C6.18347 11.5749 5.93944 10.995 5.89497 10.3835C5.88357 10.3133 5.87898 10.2421 5.88125 10.171V10.1367C6.27181 10.3541 6.70908 10.474 7.15591 10.4863C6.77132 10.2299 6.45616 9.88235 6.23854 9.4746C6.02091 9.06685 5.90759 8.61157 5.90868 8.14938C5.90819 7.6517 6.03815 7.16259 6.28559 6.73079C6.99139 7.60043 7.87242 8.31167 8.87133 8.81821C9.87024 9.32475 10.9646 9.61523 12.0833 9.67074C11.9417 9.06772 12.0033 8.43483 12.2584 7.87039C12.5135 7.30594 12.9479 6.84154 13.494 6.54933C14.0402 6.25711 14.6675 6.15344 15.2787 6.25441C15.8898 6.35538 16.4505 6.65534 16.8736 7.1077C17.5046 6.98317 18.1096 6.75138 18.6622 6.42239C18.686 6.89951 18.6065 7.37613 18.4291 7.81966C18.2516 8.2632 17.9805 8.6632 17.6343 8.99229Z" fill="white"/>
</svg>
