<svg width="37" height="36" viewBox="0 0 37 36" fill="none" xmlns="http://www.w3.org/2000/svg">
<g id="Group 31">
<circle id="Ellipse 32" cx="18.7578" cy="18" r="18" fill="#EC407A"/>
<path id="Brand Logos" d="M26.9676 14.0216C26.9778 14.2048 26.9778 14.388 26.9778 14.561C26.9752 15.688 26.8106 16.8087 26.4892 17.8888C25.8119 20.378 24.3248 22.5706 22.2626 24.1205C20.2004 25.6703 17.6807 26.4891 15.1014 26.4475C12.8308 26.4501 10.6078 25.7963 8.7002 24.5648C9.03105 24.6057 9.36413 24.6261 9.69751 24.6258C11.5764 24.6276 13.4011 23.9967 14.8776 22.8347C14.0079 22.8184 13.1651 22.5312 12.4664 22.0131C11.7677 21.4951 11.2481 20.7719 10.9798 19.9445C11.2388 19.9889 11.5008 20.0127 11.7635 20.0158C12.1386 20.0172 12.512 19.9658 12.8727 19.8631C11.9796 19.6863 11.1692 19.2211 10.5662 18.539C9.96313 17.8568 9.60074 16.9956 9.53471 16.0875C9.51778 15.9833 9.51096 15.8776 9.51433 15.772V15.7212C10.0943 16.044 10.7437 16.222 11.4072 16.2402C10.8361 15.8595 10.3681 15.3434 10.0449 14.7379C9.72174 14.1324 9.55346 13.4563 9.55507 12.7699C9.55434 12.0309 9.74733 11.3045 10.1148 10.6633C11.1629 11.9547 12.4712 13.0109 13.9546 13.7631C15.438 14.5153 17.0632 14.9467 18.7243 15.0291C18.5141 14.1336 18.6055 13.1938 18.9844 12.3556C19.3632 11.5174 20.0082 10.8278 20.8193 10.3938C21.6303 9.95989 22.562 9.80593 23.4695 9.95587C24.377 10.1058 25.2096 10.5513 25.838 11.223C26.775 11.0381 27.6734 10.6939 28.4941 10.2053C28.5294 10.9138 28.4113 11.6216 28.1478 12.2803C27.8844 12.9389 27.4818 13.5329 26.9676 14.0216Z" fill="white"/>
</g>
</svg>
