<svg width="24" height="24" viewBox="0 0 24 24" fill="none" xmlns="http://www.w3.org/2000/svg">
<g id="Group 31">
<circle id="Ellipse 32" cx="12" cy="12" r="12" fill="white"/>
<path id="Brand Logos" d="M17.6339 8.99278C17.6408 9.11613 17.6408 9.23949 17.6408 9.356C17.639 10.1149 17.5282 10.8696 17.3118 11.5969C16.8557 13.2731 15.8542 14.7497 14.4656 15.7933C13.0769 16.837 11.3801 17.3884 9.64321 17.3604C8.11418 17.3621 6.61725 16.9218 5.33264 16.0926C5.55544 16.1201 5.77974 16.1339 6.00423 16.1337C7.26946 16.1349 8.49824 15.71 9.49249 14.9275C8.90688 14.9165 8.33928 14.7231 7.8688 14.3742C7.39832 14.0254 7.04838 13.5384 6.86775 12.9813C7.04212 13.0111 7.21857 13.0272 7.39546 13.0293C7.64803 13.0302 7.89948 12.9956 8.14242 12.9264C7.54098 12.8074 6.99529 12.4941 6.5892 12.0347C6.1831 11.5754 5.93907 10.9954 5.8946 10.3839C5.88321 10.3137 5.87861 10.2426 5.88088 10.1715V10.1372C6.27144 10.3546 6.70872 10.4745 7.15554 10.4867C6.77095 10.2304 6.45579 9.88284 6.23817 9.47509C6.02055 9.06734 5.90723 8.61206 5.90832 8.14987C5.90783 7.65219 6.03778 7.16308 6.28523 6.73128C6.99102 7.60092 7.87205 8.31216 8.87096 8.8187C9.86988 9.32524 10.9643 9.61572 12.0829 9.67123C11.9414 9.06821 12.0029 8.43532 12.258 7.87088C12.5131 7.30643 12.9475 6.84203 13.4936 6.54982C14.0398 6.2576 14.6672 6.15392 15.2783 6.25489C15.8894 6.35586 16.4501 6.65583 16.8732 7.10819C17.5042 6.98366 18.1092 6.75187 18.6619 6.42288C18.6856 6.89999 18.6061 7.37661 18.4287 7.82015C18.2513 8.26369 17.9802 8.66368 17.6339 8.99278Z" fill="#1E1E1E"/>
</g>
</svg>
