<svg width="10" height="9" viewBox="0 0 10 9" fill="none" xmlns="http://www.w3.org/2000/svg">
<path fill-rule="evenodd" clip-rule="evenodd" d="M5.4454 0.96755C5.3037 1.11427 5.30419 1.35163 5.44651 1.49771L7.75608 3.8685L1.36366 3.8685L1.31432 3.87192C1.13683 3.89674 1.00003 4.05359 1.00003 4.24338C1.00003 4.45042 1.16283 4.61826 1.36366 4.61826L7.7554 4.61826L5.44648 6.98906L5.41119 7.03103C5.30527 7.17757 5.31659 7.38586 5.44542 7.51923C5.58713 7.66593 5.81737 7.66642 5.95967 7.52033L8.88602 4.51589C8.94401 4.45939 8.98397 4.38343 8.99608 4.29815C9.01234 4.18456 8.97796 4.06475 8.89294 3.97747L5.95965 0.966408L5.91879 0.930201C5.77621 0.821624 5.57422 0.834172 5.4454 0.96755Z" fill="#EC407A"/>
<path d="M5.44651 1.49771L5.08836 1.84661L5.08836 1.84661L5.44651 1.49771ZM5.4454 0.96755L5.80505 1.3149L5.80505 1.3149L5.4454 0.96755ZM7.75608 3.8685L7.75608 4.3685L8.9412 4.3685L8.11422 3.5196L7.75608 3.8685ZM1.36366 3.8685L1.36366 3.3685L1.34634 3.3685L1.32907 3.3697L1.36366 3.8685ZM1.31432 3.87192L1.27972 3.37312L1.26233 3.37433L1.24507 3.37674L1.31432 3.87192ZM1.36366 4.61826L1.36366 5.11826L1.36366 4.61826ZM7.7554 4.61826L8.1136 4.9671L8.94029 4.11826L7.7554 4.11826L7.7554 4.61826ZM5.44648 6.98906L5.08829 6.64022L5.07555 6.65329L5.0638 6.66727L5.44648 6.98906ZM5.41119 7.03103L5.02851 6.70924L5.01671 6.72327L5.00597 6.73813L5.41119 7.03103ZM5.44542 7.51923L5.0858 7.86661L5.0858 7.86661L5.44542 7.51923ZM5.95967 7.52033L6.31785 7.86919L5.95967 7.52033ZM8.88602 4.51589L8.53699 4.15763L8.52784 4.16702L8.88602 4.51589ZM8.99608 4.29815L8.50113 4.22731L8.50105 4.22785L8.99608 4.29815ZM8.89294 3.97747L9.25109 3.62858L9.25109 3.62858L8.89294 3.97747ZM5.95965 0.966408L6.3178 0.617511L6.30499 0.604364L6.29125 0.592192L5.95965 0.966408ZM5.91879 0.930201L6.25039 0.555984L6.23649 0.543664L6.22171 0.532409L5.91879 0.930201ZM5.80465 1.14882C5.82932 1.17414 5.83939 1.20532 5.83945 1.23182C5.8395 1.25833 5.82957 1.28951 5.80505 1.3149L5.08575 0.620197C4.75637 0.961232 4.75745 1.50693 5.08836 1.84661L5.80465 1.14882ZM8.11422 3.5196L5.80465 1.14881L5.08836 1.84661L7.39793 4.2174L8.11422 3.5196ZM1.36366 4.3685L7.75608 4.3685L7.75608 3.3685L1.36366 3.3685L1.36366 4.3685ZM1.34892 4.37072L1.39826 4.3673L1.32907 3.3697L1.27972 3.37312L1.34892 4.37072ZM1.50003 4.24338C1.50003 4.29481 1.46107 4.35626 1.38357 4.3671L1.24507 3.37674C0.812591 3.43723 0.50003 3.81238 0.50003 4.24338L1.50003 4.24338ZM1.36366 4.11826C1.45322 4.11826 1.50003 4.18874 1.50003 4.24338L0.50003 4.24338C0.50003 4.71209 0.872446 5.11826 1.36366 5.11826L1.36366 4.11826ZM7.7554 4.11826L1.36366 4.11826L1.36366 5.11826L7.7554 5.11826L7.7554 4.11826ZM5.80468 7.33791L8.1136 4.9671L7.39721 4.26941L5.08829 6.64022L5.80468 7.33791ZM5.79388 7.35283L5.82917 7.31086L5.0638 6.66727L5.02851 6.70924L5.79388 7.35283ZM5.80504 7.17185C5.84799 7.2163 5.84942 7.27828 5.81642 7.32394L5.00597 6.73813C4.76112 7.07686 4.7852 7.55541 5.0858 7.86661L5.80504 7.17185ZM5.60149 7.17146C5.65608 7.11542 5.75079 7.11569 5.80504 7.17184L5.0858 7.86661C5.42347 8.21617 5.97867 8.21743 6.31785 7.86919L5.60149 7.17146ZM8.52784 4.16702L5.60149 7.17146L6.31785 7.86919L9.2442 4.86475L8.52784 4.16702ZM8.50105 4.22785C8.50473 4.20192 8.51719 4.17716 8.53711 4.15775L9.23493 4.87402C9.37083 4.74162 9.46321 4.56495 9.49112 4.36845L8.50105 4.22785ZM8.53479 4.32637C8.50519 4.29599 8.49674 4.25801 8.50113 4.22731L9.49104 4.369C9.52795 4.11112 9.45073 3.83351 9.25109 3.62858L8.53479 4.32637ZM5.6015 1.31531L8.53479 4.32637L9.25109 3.62858L6.3178 0.617511L5.6015 1.31531ZM5.58718 1.30442L5.62804 1.34062L6.29125 0.592192L6.25039 0.555984L5.58718 1.30442ZM5.80505 1.3149C5.75635 1.36532 5.6734 1.3718 5.61587 1.32799L6.22171 0.532409C5.87901 0.271443 5.39208 0.303025 5.08575 0.620197L5.80505 1.3149Z" fill="#EC407A"/>
</svg>
