<svg width="10" height="9" viewBox="0 0 10 9" fill="none" xmlns="http://www.w3.org/2000/svg">
<path fill-rule="evenodd" clip-rule="evenodd" d="M5.44537 0.96755C5.30367 1.11427 5.30416 1.35163 5.44648 1.49771L7.75607 3.8685L1.36363 3.8685L1.31429 3.87192C1.1368 3.89674 1 4.05359 1 4.24338C1 4.45042 1.1628 4.61826 1.36363 4.61826L7.75539 4.61826L5.44646 6.98906L5.41116 7.03103C5.30524 7.17757 5.31656 7.38586 5.44539 7.51923C5.5871 7.66593 5.81734 7.66642 5.95965 7.52033L8.88725 4.51462C8.90636 4.49582 8.92349 4.4749 8.93827 4.45221C9.03362 4.30624 9.01851 4.10637 8.89294 3.97747L5.95962 0.966408L5.91876 0.930201C5.77618 0.821624 5.57419 0.834172 5.44537 0.96755Z" fill="white"/>
<path d="M5.44648 1.49771L5.08833 1.84661L5.08833 1.84662L5.44648 1.49771ZM5.44537 0.96755L5.08572 0.620196L5.08572 0.620196L5.44537 0.96755ZM7.75607 3.8685L7.75607 4.3685L8.9412 4.3685L8.11421 3.5196L7.75607 3.8685ZM1.36363 3.8685L1.36363 3.3685L1.34631 3.3685L1.32904 3.3697L1.36363 3.8685ZM1.31429 3.87192L1.27969 3.37312L1.2623 3.37433L1.24503 3.37674L1.31429 3.87192ZM1.36363 4.61826L1.36363 5.11826L1.36363 4.61826ZM7.75539 4.61826L8.11359 4.9671L8.94029 4.11826L7.75539 4.11826L7.75539 4.61826ZM5.44646 6.98906L5.08826 6.64021L5.07552 6.65329L5.06377 6.66727L5.44646 6.98906ZM5.41116 7.03103L5.02848 6.70924L5.01668 6.72327L5.00594 6.73813L5.41116 7.03103ZM5.44539 7.51923L5.08577 7.86661L5.08577 7.86661L5.44539 7.51923ZM5.95965 7.52033L6.31782 7.86919L6.31782 7.86919L5.95965 7.52033ZM8.88725 4.51462L8.53652 4.15811L8.52907 4.16576L8.88725 4.51462ZM8.93827 4.45221L8.51966 4.17879L8.51941 4.17917L8.93827 4.45221ZM8.89294 3.97747L9.25109 3.62858L9.25109 3.62858L8.89294 3.97747ZM5.95962 0.966408L6.31777 0.617509L6.30496 0.604363L6.29123 0.592191L5.95962 0.966408ZM5.91876 0.930201L6.25037 0.555983L6.23646 0.543663L6.22168 0.532407L5.91876 0.930201ZM5.80462 1.14882C5.82929 1.17414 5.83936 1.20532 5.83942 1.23182C5.83947 1.25833 5.82954 1.28952 5.80502 1.3149L5.08572 0.620196C4.75634 0.961231 4.75742 1.50693 5.08833 1.84661L5.80462 1.14882ZM8.11421 3.5196L5.80462 1.14881L5.08833 1.84662L7.39792 4.2174L8.11421 3.5196ZM1.36363 4.3685L7.75607 4.3685L7.75607 3.3685L1.36363 3.3685L1.36363 4.3685ZM1.34888 4.37072L1.39823 4.3673L1.32904 3.3697L1.27969 3.37312L1.34888 4.37072ZM1.5 4.24338C1.5 4.2948 1.46104 4.35626 1.38354 4.3671L1.24503 3.37674C0.812558 3.43723 0.5 3.81238 0.5 4.24338L1.5 4.24338ZM1.36363 4.11826C1.45319 4.11826 1.5 4.18874 1.5 4.24338L0.5 4.24338C0.5 4.71209 0.872413 5.11826 1.36363 5.11826L1.36363 4.11826ZM7.75539 4.11826L1.36363 4.11826L1.36363 5.11826L7.75539 5.11826L7.75539 4.11826ZM5.80465 7.33791L8.11359 4.9671L7.3972 4.26941L5.08826 6.64021L5.80465 7.33791ZM5.79385 7.35283L5.82914 7.31086L5.06377 6.66727L5.02848 6.70924L5.79385 7.35283ZM5.80501 7.17184C5.84795 7.2163 5.84939 7.27828 5.81638 7.32394L5.00594 6.73813C4.76109 7.07686 4.78517 7.55542 5.08577 7.86661L5.80501 7.17184ZM5.60147 7.17146C5.65605 7.11542 5.75076 7.11569 5.80501 7.17184L5.08577 7.86661C5.42344 8.21617 5.97864 8.21743 6.31782 7.86919L5.60147 7.17146ZM8.52907 4.16576L5.60147 7.17146L6.31782 7.86919L9.24542 4.86349L8.52907 4.16576ZM8.51941 4.17917C8.52424 4.17175 8.52997 4.16471 8.5366 4.15819L9.2379 4.87106C9.28275 4.82694 9.32273 4.77804 9.35714 4.72526L8.51941 4.17917ZM8.53479 4.32637C8.49254 4.283 8.4905 4.22344 8.51966 4.17879L9.35689 4.72564C9.57674 4.38903 9.54447 3.92974 9.25109 3.62858L8.53479 4.32637ZM5.60148 1.31531L8.53479 4.32637L9.25109 3.62858L6.31777 0.617509L5.60148 1.31531ZM5.58716 1.30442L5.62802 1.34063L6.29123 0.592191L6.25037 0.555983L5.58716 1.30442ZM5.80501 1.3149C5.75632 1.36532 5.67338 1.3718 5.61584 1.32799L6.22168 0.532407C5.87899 0.271443 5.39205 0.303026 5.08572 0.620196L5.80501 1.3149Z" fill="white"/>
</svg>
