<svg width="24" height="24" viewBox="0 0 24 24" fill="none" xmlns="http://www.w3.org/2000/svg">
<circle cx="12" cy="12" r="12" fill="#1E1E1E"/>
<path d="M19.1965 10.3841C19.2288 9.35912 19.0241 8.34182 18.6012 7.42666C18.3143 7.05114 17.9162 6.79773 17.4761 6.71058C15.656 6.52978 13.8284 6.45568 12.001 6.48859C10.1803 6.45419 8.35928 6.5259 6.54556 6.70342C6.18698 6.77482 5.85514 6.95894 5.59053 7.23332C5.00181 7.82767 4.9364 8.8445 4.87098 9.7038C4.77608 11.2488 4.77608 12.799 4.87098 14.344C4.88991 14.8277 4.95569 15.3077 5.06722 15.7762C5.1461 16.1379 5.30567 16.4725 5.53166 16.7501C5.79807 17.039 6.13764 17.2336 6.50632 17.3086C7.91657 17.4992 9.33754 17.5781 10.7582 17.5449C13.0476 17.5807 15.0558 17.5449 17.4303 17.3444C17.8081 17.274 18.1572 17.0791 18.4312 16.7859C18.6143 16.5853 18.7511 16.3398 18.8302 16.0698C19.0641 15.284 19.179 14.4615 19.1703 13.6351C19.1965 13.2341 19.1965 10.8137 19.1965 10.3841ZM10.5227 14.0647V9.63219L14.3952 11.8592C13.3093 12.518 11.8767 13.2627 10.5227 14.0647Z" fill="white"/>
</svg>
